<?xml version="1.0" encoding="UTF-8" standalone="no"?>
<!-- Generator: Adobe Illustrator 25.2.3, SVG Export Plug-In . SVG Version: 6.00 Build 0)  -->

<svg
   sodipodi:docname="new_tab_dark.svg"
   xml:space="preserve"
   style="enable-background:new 0 0 128 128"
   viewBox="0 0 128 128"
   y="0px"
   x="0px"
   id="Layer_1"
   version="1.1"
   inkscape:version="1.2.2 (732a01da63, 2022-12-09)"
   xmlns:inkscape="http://www.inkscape.org/namespaces/inkscape"
   xmlns:sodipodi="http://sodipodi.sourceforge.net/DTD/sodipodi-0.dtd"
   xmlns="http://www.w3.org/2000/svg"
   xmlns:svg="http://www.w3.org/2000/svg"><defs
   id="defs23" /><sodipodi:namedview
   id="namedview21"
   pagecolor="#ffffff"
   bordercolor="#666666"
   borderopacity="1.0"
   inkscape:showpageshadow="2"
   inkscape:pageopacity="0.0"
   inkscape:pagecheckerboard="0"
   inkscape:deskcolor="#d1d1d1"
   showgrid="false"
   inkscape:zoom="7.0546875"
   inkscape:cx="63.929125"
   inkscape:cy="64.070875"
   inkscape:window-width="1920"
   inkscape:window-height="1057"
   inkscape:window-x="-8"
   inkscape:window-y="-8"
   inkscape:window-maximized="1"
   inkscape:current-layer="Layer_1" />
<g
   id="g12">
	<g
   id="g4">
		<path
   style="fill:#213b43"
   d="M116,4H12c-4.4,0-8,3.6-8,8v104c0,4.4,3.6,8,8,8h104c4.4,0,8-3.6,8-8V12C124,7.6,120.4,4,116,4z"
   id="path2" />
	</g>
	<g
   id="g10">
		<g
   id="g8">
			<path
   style="fill:#46575f"
   d="M109.7,4H11.5C7.4,4,4,7.4,4,11.5v97.9c0,4.2,3.4,7.5,7.5,7.5h98.1c4.2,0,7.5-3.4,7.5-7.5V11.5     C117.3,7.4,113.8,4,109.7,4z"
   id="path6" />
		</g>
	</g>
</g>
<path
   style="fill:#FAFAFA;"
   d="M59.53,30.32h33.94c2.4-0.14,4.38,1.84,4.24,4.24v33.95c-0.21,3.46-4.38,4.95-6.79,2.55l-9.9-9.9  c-0.78-0.78-2.05-0.78-2.83,0L45.66,93.69c-1.56,1.56-4.1,1.56-5.66,0l-5.66-5.66c-1.56-1.56-1.56-4.1,0-5.66l32.54-32.53  c0.78-0.78,0.78-2.05,0-2.83l-9.9-9.9C54.58,34.71,56.06,30.53,59.53,30.32z"
   id="path14" />
<g
   id="g18">
	<path
   style="opacity:0.5;fill:#5a7076;enable-background:new"
   d="M39.7,12.9c0-2.3-1.6-3-10.8-2.7c-7.7,0.3-11.5,1.2-13.8,4   s-2.9,8.5-3,15.3c0,4.8,0,9.3,2.5,9.3c3.4,0,3.4-7.9,6.2-12.3C26.2,17.8,39.7,15.9,39.7,12.9z"
   id="path16" />
</g>
</svg>
